<svg width="200" height="100" viewBox="0 0 200 100" fill="none" xmlns="http://www.w3.org/2000/svg">
<rect width="200" height="100" fill="white"/>
<path d="M19.42 65H18.55V58.86H16.4V58.11H21.59L21.5 58.86H19.42V65ZM23.6661 62.66C23.6861 63.24 23.8361 63.6767 24.1161 63.97C24.4028 64.2633 24.7628 64.41 25.1961 64.41C25.4561 64.41 25.6928 64.3733 25.9061 64.3C26.1261 64.22 26.3594 64.1 26.6061 63.94L26.9961 64.5C26.7494 64.6933 26.4661 64.8433 26.1461 64.95C25.8328 65.0567 25.5161 65.11 25.1961 65.11C24.4361 65.11 23.8428 64.8633 23.4161 64.37C22.9961 63.87 22.7861 63.2033 22.7861 62.37C22.7861 61.8433 22.8794 61.3733 23.0661 60.96C23.2528 60.54 23.5194 60.2133 23.8661 59.98C24.2128 59.74 24.6161 59.62 25.0761 59.62C25.7428 59.62 26.2661 59.8533 26.6461 60.32C27.0328 60.78 27.2261 61.41 27.2261 62.21C27.2261 62.3633 27.2194 62.5133 27.2061 62.66H23.6661ZM25.0861 60.31C24.6794 60.31 24.3494 60.4567 24.0961 60.75C23.8428 61.0367 23.6994 61.46 23.6661 62.02H26.4061C26.3994 61.4667 26.2794 61.0433 26.0461 60.75C25.8128 60.4567 25.4928 60.31 25.0861 60.31ZM31.3522 59.62C32.6255 59.62 33.2622 60.5333 33.2622 62.36C33.2622 63.1933 33.0889 63.86 32.7422 64.36C32.3955 64.86 31.8922 65.11 31.2322 65.11C30.6589 65.11 30.1922 64.91 29.8322 64.51V67.02L28.9922 67.12V59.73H29.7122L29.7822 60.47C29.9755 60.1967 30.2055 59.9867 30.4722 59.84C30.7455 59.6933 31.0389 59.62 31.3522 59.62ZM31.1522 60.3C30.8855 60.3 30.6389 60.38 30.4122 60.54C30.1922 60.7 29.9989 60.9 29.8322 61.14V63.75C29.9722 63.9567 30.1455 64.12 30.3522 64.24C30.5655 64.3533 30.7955 64.41 31.0422 64.41C31.4822 64.41 31.8089 64.2433 32.0222 63.91C32.2422 63.57 32.3522 63.0533 32.3522 62.36C32.3522 61.6667 32.2555 61.15 32.0622 60.81C31.8689 60.47 31.5655 60.3 31.1522 60.3ZM37.5283 65.03C37.3216 65.6367 37.0383 66.12 36.6783 66.48C36.3183 66.84 35.8149 67.0533 35.1683 67.12L35.0483 66.45C35.4016 66.39 35.6816 66.2967 35.8883 66.17C36.1016 66.05 36.2683 65.8967 36.3883 65.71C36.5083 65.53 36.6183 65.2933 36.7183 65H36.4383L34.6083 59.73H35.4983L37.0083 64.36L38.4983 59.73H39.3683L37.5283 65.03ZM49.4005 65H48.5305V58.86H46.3805V58.11H51.5705L51.4805 58.86H49.4005V65ZM53.8166 60.46C54.0232 60.1933 54.2766 59.9867 54.5766 59.84C54.8766 59.6933 55.1866 59.62 55.5066 59.62C56.4932 59.62 56.9866 60.14 56.9866 61.18V65H56.1466V61.19C56.1466 60.8767 56.0732 60.65 55.9266 60.51C55.7799 60.3633 55.5466 60.29 55.2266 60.29C54.9532 60.29 54.6899 60.3767 54.4366 60.55C54.1832 60.7233 53.9766 60.9267 53.8166 61.16V65H52.9766V57.62L53.8166 57.53V60.46ZM62.7527 63.85C62.7527 64.0567 62.786 64.21 62.8527 64.31C62.9193 64.4033 63.0293 64.4733 63.1827 64.52L62.9727 65.12C62.4593 65.0533 62.1393 64.8033 62.0127 64.37C61.826 64.61 61.5893 64.7933 61.3027 64.92C61.0227 65.0467 60.7093 65.11 60.3627 65.11C59.836 65.11 59.4193 64.9633 59.1127 64.67C58.8127 64.3767 58.6627 63.9833 58.6627 63.49C58.6627 62.95 58.8727 62.5333 59.2927 62.24C59.7193 61.9467 60.3293 61.8 61.1227 61.8H61.9027V61.37C61.9027 60.9967 61.796 60.73 61.5827 60.57C61.3693 60.4033 61.0593 60.32 60.6527 60.32C60.2527 60.32 59.796 60.41 59.2827 60.59L59.0527 59.95C59.6727 59.73 60.2493 59.62 60.7827 59.62C61.4227 59.62 61.9093 59.77 62.2427 60.07C62.5827 60.37 62.7527 60.7867 62.7527 61.32V63.85ZM60.5727 64.48C60.8327 64.48 61.0793 64.4133 61.3127 64.28C61.5527 64.1467 61.7493 63.9633 61.9027 63.73V62.38H61.1427C60.5827 62.38 60.1793 62.4733 59.9327 62.66C59.686 62.8467 59.5627 63.12 59.5627 63.48C59.5627 64.1467 59.8993 64.48 60.5727 64.48ZM66.9688 57.27C67.1554 57.27 67.3054 57.3267 67.4188 57.44C67.5321 57.5467 67.5888 57.6867 67.5888 57.86C67.5888 58.0333 67.5321 58.1767 67.4188 58.29C67.3054 58.3967 67.1554 58.45 66.9688 58.45C66.7888 58.45 66.6421 58.3967 66.5288 58.29C66.4221 58.1767 66.3688 58.0333 66.3688 57.86C66.3688 57.6867 66.4221 57.5467 66.5288 57.44C66.6421 57.3267 66.7888 57.27 66.9688 57.27ZM67.6388 64.33H69.1188V65H65.1788V64.33H66.7988V60.4H65.2288V59.73H67.6388V64.33ZM72.2648 57.84C72.2648 57.64 72.3415 57.47 72.4948 57.33C72.6482 57.1833 72.8248 57.11 73.0248 57.11C73.2382 57.11 73.4182 57.18 73.5648 57.32C73.7182 57.46 73.7948 57.6333 73.7948 57.84C73.7948 57.9333 73.7815 58.0267 73.7548 58.12C73.7282 58.2133 73.6782 58.34 73.6048 58.5L72.7848 60.23H72.1248L72.5348 58.39C72.4548 58.33 72.3882 58.2533 72.3348 58.16C72.2882 58.06 72.2648 57.9533 72.2648 57.84ZM78.7609 64.42C79.1609 64.42 79.4776 64.3433 79.7109 64.19C79.9443 64.0367 80.0609 63.8333 80.0609 63.58C80.0609 63.4067 80.0309 63.2667 79.9709 63.16C79.9109 63.0467 79.7909 62.9467 79.6109 62.86C79.4309 62.7667 79.1576 62.6733 78.7909 62.58C78.1776 62.4267 77.7243 62.2433 77.4309 62.03C77.1376 61.81 76.9909 61.4867 76.9909 61.06C76.9909 60.62 77.1743 60.27 77.5409 60.01C77.9076 59.75 78.3909 59.62 78.9909 59.62C79.7243 59.62 80.3643 59.8133 80.9109 60.2L80.5309 60.78C80.3109 60.6267 80.0809 60.51 79.8409 60.43C79.6009 60.3433 79.3243 60.3 79.0109 60.3C78.2509 60.3 77.8709 60.53 77.8709 60.99C77.8709 61.15 77.9109 61.28 77.9909 61.38C78.0776 61.48 78.2143 61.57 78.4009 61.65C78.5943 61.7233 78.8809 61.8133 79.2609 61.92C79.8343 62.0733 80.2609 62.27 80.5409 62.51C80.8276 62.7433 80.9709 63.0867 80.9709 63.54C80.9709 64.0667 80.7576 64.46 80.3309 64.72C79.9043 64.98 79.3809 65.11 78.7609 65.11C77.9343 65.11 77.2476 64.8733 76.7009 64.4L77.1709 63.85C77.3843 64.0233 77.6276 64.1633 77.9009 64.27C78.1743 64.37 78.4609 64.42 78.7609 64.42ZM93.5231 60.23C93.5231 60.9967 93.2865 61.5567 92.8131 61.91C92.3398 62.2633 91.6898 62.44 90.8631 62.44H89.9731V65H89.1131V58.11H90.8631C91.7098 58.11 92.3631 58.2867 92.8231 58.64C93.2898 58.9933 93.5231 59.5233 93.5231 60.23ZM92.5931 60.24C92.5931 59.74 92.4465 59.3767 92.1531 59.15C91.8665 58.9167 91.4731 58.8 90.9731 58.8H89.9731V61.75H90.9431C91.4631 61.75 91.8665 61.6367 92.1531 61.41C92.4465 61.1833 92.5931 60.7933 92.5931 60.24ZM95.6192 62.66C95.6392 63.24 95.7892 63.6767 96.0692 63.97C96.3559 64.2633 96.7159 64.41 97.1492 64.41C97.4092 64.41 97.6459 64.3733 97.8592 64.3C98.0792 64.22 98.3126 64.1 98.5592 63.94L98.9492 64.5C98.7026 64.6933 98.4192 64.8433 98.0992 64.95C97.7859 65.0567 97.4692 65.11 97.1492 65.11C96.3892 65.11 95.7959 64.8633 95.3692 64.37C94.9492 63.87 94.7392 63.2033 94.7392 62.37C94.7392 61.8433 94.8326 61.3733 95.0192 60.96C95.2059 60.54 95.4726 60.2133 95.8192 59.98C96.1659 59.74 96.5692 59.62 97.0292 59.62C97.6959 59.62 98.2192 59.8533 98.5992 60.32C98.9859 60.78 99.1792 61.41 99.1792 62.21C99.1792 62.3633 99.1726 62.5133 99.1592 62.66H95.6192ZM97.0392 60.31C96.6326 60.31 96.3026 60.4567 96.0492 60.75C95.7959 61.0367 95.6526 61.46 95.6192 62.02H98.3592C98.3526 61.4667 98.2326 61.0433 97.9992 60.75C97.7659 60.4567 97.4459 60.31 97.0392 60.31ZM104.505 59.62C104.719 59.62 104.965 59.6567 105.245 59.73L105.125 61.52H104.445V60.39H104.395C103.582 60.39 103.005 60.97 102.665 62.13V64.35H103.735V65H100.995V64.35H101.825V60.38H100.995V59.73H102.455L102.615 60.98C102.829 60.5267 103.082 60.1867 103.375 59.96C103.675 59.7333 104.052 59.62 104.505 59.62ZM108.741 64.42C109.141 64.42 109.458 64.3433 109.691 64.19C109.925 64.0367 110.041 63.8333 110.041 63.58C110.041 63.4067 110.011 63.2667 109.951 63.16C109.891 63.0467 109.771 62.9467 109.591 62.86C109.411 62.7667 109.138 62.6733 108.771 62.58C108.158 62.4267 107.705 62.2433 107.411 62.03C107.118 61.81 106.971 61.4867 106.971 61.06C106.971 60.62 107.155 60.27 107.521 60.01C107.888 59.75 108.371 59.62 108.971 59.62C109.705 59.62 110.345 59.8133 110.891 60.2L110.511 60.78C110.291 60.6267 110.061 60.51 109.821 60.43C109.581 60.3433 109.305 60.3 108.991 60.3C108.231 60.3 107.851 60.53 107.851 60.99C107.851 61.15 107.891 61.28 107.971 61.38C108.058 61.48 108.195 61.57 108.381 61.65C108.575 61.7233 108.861 61.8133 109.241 61.92C109.815 62.0733 110.241 62.27 110.521 62.51C110.808 62.7433 110.951 63.0867 110.951 63.54C110.951 64.0667 110.738 64.46 110.311 64.72C109.885 64.98 109.361 65.11 108.741 65.11C107.915 65.11 107.228 64.8733 106.681 64.4L107.151 63.85C107.365 64.0233 107.608 64.1633 107.881 64.27C108.155 64.37 108.441 64.42 108.741 64.42ZM114.948 59.62C115.674 59.62 116.231 59.8667 116.618 60.36C117.011 60.8467 117.208 61.5133 117.208 62.36C117.208 63.1867 117.008 63.8533 116.608 64.36C116.214 64.86 115.658 65.11 114.938 65.11C114.211 65.11 113.651 64.8667 113.257 64.38C112.864 63.8867 112.668 63.2167 112.668 62.37C112.668 61.5367 112.864 60.87 113.257 60.37C113.658 59.87 114.221 59.62 114.948 59.62ZM114.948 60.31C114.488 60.31 114.144 60.48 113.918 60.82C113.691 61.16 113.578 61.6767 113.578 62.37C113.578 63.0633 113.688 63.58 113.908 63.92C114.134 64.2533 114.478 64.42 114.938 64.42C115.398 64.42 115.738 64.2533 115.958 63.92C116.184 63.58 116.298 63.06 116.298 62.36C116.298 61.6667 116.184 61.1533 115.958 60.82C115.738 60.48 115.401 60.31 114.948 60.31ZM118.934 59.73H119.654L119.724 60.47C119.93 60.2033 120.19 59.9967 120.504 59.85C120.824 59.6967 121.144 59.62 121.464 59.62C122.45 59.62 122.944 60.14 122.944 61.18V65H122.104V61.8C122.104 61.4067 122.08 61.1067 122.034 60.9C121.994 60.6933 121.91 60.54 121.784 60.44C121.657 60.34 121.464 60.29 121.204 60.29C120.917 60.29 120.647 60.3767 120.394 60.55C120.14 60.7233 119.934 60.93 119.774 61.17V65H118.934V59.73ZM128.71 63.85C128.71 64.0567 128.743 64.21 128.81 64.31C128.876 64.4033 128.986 64.4733 129.14 64.52L128.93 65.12C128.416 65.0533 128.096 64.8033 127.97 64.37C127.783 64.61 127.546 64.7933 127.26 64.92C126.98 65.0467 126.666 65.11 126.32 65.11C125.793 65.11 125.376 64.9633 125.07 64.67C124.77 64.3767 124.62 63.9833 124.62 63.49C124.62 62.95 124.83 62.5333 125.25 62.24C125.676 61.9467 126.286 61.8 127.08 61.8H127.86V61.37C127.86 60.9967 127.753 60.73 127.54 60.57C127.326 60.4033 127.016 60.32 126.61 60.32C126.21 60.32 125.753 60.41 125.24 60.59L125.01 59.95C125.63 59.73 126.206 59.62 126.74 59.62C127.38 59.62 127.866 59.77 128.2 60.07C128.54 60.37 128.71 60.7867 128.71 61.32V63.85ZM126.53 64.48C126.79 64.48 127.036 64.4133 127.27 64.28C127.51 64.1467 127.706 63.9633 127.86 63.73V62.38H127.1C126.54 62.38 126.136 62.4733 125.89 62.66C125.643 62.8467 125.52 63.12 125.52 63.48C125.52 64.1467 125.856 64.48 126.53 64.48ZM132.986 63.7C132.986 64.1733 133.276 64.41 133.856 64.41C134.129 64.41 134.422 64.35 134.736 64.23L134.956 64.84C134.622 65.02 134.206 65.11 133.706 65.11C133.232 65.11 132.852 64.98 132.566 64.72C132.286 64.46 132.146 64.1067 132.146 63.66V58.28H130.526V57.61H132.986V63.7ZM146.828 65H145.688L144.898 59.8L144.098 65H142.928L141.968 58.11H142.838L143.568 64.05L144.398 58.91H145.458L146.248 64.05L147.068 58.11H147.868L146.828 65ZM149.584 62.66C149.604 63.24 149.754 63.6767 150.034 63.97C150.321 64.2633 150.681 64.41 151.114 64.41C151.374 64.41 151.611 64.3733 151.824 64.3C152.044 64.22 152.277 64.1 152.524 63.94L152.914 64.5C152.667 64.6933 152.384 64.8433 152.064 64.95C151.751 65.0567 151.434 65.11 151.114 65.11C150.354 65.11 149.761 64.8633 149.334 64.37C148.914 63.87 148.704 63.2033 148.704 62.37C148.704 61.8433 148.797 61.3733 148.984 60.96C149.171 60.54 149.437 60.2133 149.784 59.98C150.131 59.74 150.534 59.62 150.994 59.62C151.661 59.62 152.184 59.8533 152.564 60.32C152.951 60.78 153.144 61.41 153.144 62.21C153.144 62.3633 153.137 62.5133 153.124 62.66H149.584ZM151.004 60.31C150.597 60.31 150.267 60.4567 150.014 60.75C149.761 61.0367 149.617 61.46 149.584 62.02H152.324C152.317 61.4667 152.197 61.0433 151.964 60.75C151.731 60.4567 151.411 60.31 151.004 60.31ZM155.75 60.42C156.157 59.8867 156.66 59.62 157.26 59.62C157.933 59.62 158.43 59.86 158.75 60.34C159.07 60.82 159.23 61.4933 159.23 62.36C159.23 63.1867 159.047 63.8533 158.68 64.36C158.313 64.86 157.8 65.11 157.14 65.11C156.533 65.11 156.057 64.89 155.71 64.45L155.65 65H154.91V57.61L155.75 57.51V60.42ZM156.95 64.43C157.39 64.43 157.727 64.2567 157.96 63.91C158.2 63.5633 158.32 63.0467 158.32 62.36C158.32 61.68 158.213 61.1667 158 60.82C157.793 60.4733 157.483 60.3 157.07 60.3C156.803 60.3 156.557 60.38 156.33 60.54C156.11 60.7 155.917 60.9 155.75 61.14V63.75C155.89 63.9633 156.063 64.13 156.27 64.25C156.477 64.37 156.703 64.43 156.95 64.43ZM162.706 64.42C163.106 64.42 163.423 64.3433 163.656 64.19C163.89 64.0367 164.006 63.8333 164.006 63.58C164.006 63.4067 163.976 63.2667 163.916 63.16C163.856 63.0467 163.736 62.9467 163.556 62.86C163.376 62.7667 163.103 62.6733 162.736 62.58C162.123 62.4267 161.67 62.2433 161.376 62.03C161.083 61.81 160.936 61.4867 160.936 61.06C160.936 60.62 161.12 60.27 161.486 60.01C161.853 59.75 162.336 59.62 162.936 59.62C163.67 59.62 164.31 59.8133 164.856 60.2L164.476 60.78C164.256 60.6267 164.026 60.51 163.786 60.43C163.546 60.3433 163.27 60.3 162.956 60.3C162.196 60.3 161.816 60.53 161.816 60.99C161.816 61.15 161.856 61.28 161.936 61.38C162.023 61.48 162.16 61.57 162.346 61.65C162.54 61.7233 162.826 61.8133 163.206 61.92C163.78 62.0733 164.206 62.27 164.486 62.51C164.773 62.7433 164.916 63.0867 164.916 63.54C164.916 64.0667 164.703 64.46 164.276 64.72C163.85 64.98 163.326 65.11 162.706 65.11C161.88 65.11 161.193 64.8733 160.646 64.4L161.116 63.85C161.33 64.0233 161.573 64.1633 161.846 64.27C162.12 64.37 162.406 64.42 162.706 64.42ZM168.902 57.27C169.089 57.27 169.239 57.3267 169.352 57.44C169.466 57.5467 169.522 57.6867 169.522 57.86C169.522 58.0333 169.466 58.1767 169.352 58.29C169.239 58.3967 169.089 58.45 168.902 58.45C168.722 58.45 168.576 58.3967 168.462 58.29C168.356 58.1767 168.302 58.0333 168.302 57.86C168.302 57.6867 168.356 57.5467 168.462 57.44C168.576 57.3267 168.722 57.27 168.902 57.27ZM169.572 64.33H171.052V65H167.112V64.33H168.732V60.4H167.162V59.73H169.572V64.33ZM177.088 64.73C176.908 64.85 176.688 64.9433 176.428 65.01C176.175 65.0767 175.922 65.11 175.668 65.11C175.115 65.11 174.682 64.9667 174.368 64.68C174.055 64.3867 173.898 64.0033 173.898 63.53V60.39H172.688V59.73H173.898V58.54L174.738 58.44V59.73H176.568L176.458 60.39H174.738V63.52C174.738 63.82 174.818 64.0433 174.978 64.19C175.138 64.3367 175.395 64.41 175.748 64.41C176.108 64.41 176.445 64.3267 176.758 64.16L177.088 64.73ZM179.565 62.66C179.585 63.24 179.735 63.6767 180.015 63.97C180.301 64.2633 180.661 64.41 181.095 64.41C181.355 64.41 181.591 64.3733 181.805 64.3C182.025 64.22 182.258 64.1 182.505 63.94L182.895 64.5C182.648 64.6933 182.365 64.8433 182.045 64.95C181.731 65.0567 181.415 65.11 181.095 65.11C180.335 65.11 179.741 64.8633 179.315 64.37C178.895 63.87 178.685 63.2033 178.685 62.37C178.685 61.8433 178.778 61.3733 178.965 60.96C179.151 60.54 179.418 60.2133 179.765 59.98C180.111 59.74 180.515 59.62 180.975 59.62C181.641 59.62 182.165 59.8533 182.545 60.32C182.931 60.78 183.125 61.41 183.125 62.21C183.125 62.3633 183.118 62.5133 183.105 62.66H179.565ZM180.985 60.31C180.578 60.31 180.248 60.4567 179.995 60.75C179.741 61.0367 179.598 61.46 179.565 62.02H182.305C182.298 61.4667 182.178 61.0433 181.945 60.75C181.711 60.4567 181.391 60.31 180.985 60.31Z" fill="black"/>
<rect x="88" y="32" width="24" height="24" fill="white"/>
<path d="M93 40L91.9741 39.487C91.4949 39.2474 91.3912 38.6088 91.7701 38.2299V38.2299C91.9173 38.0827 92.117 38 92.3251 38H93.5H96M96 38H99.3486C99.7084 38 100 37.7084 100 37.3486V37.3486C100 37.1308 99.8912 36.9274 99.7099 36.8066L98.5 36M96 38V42.5V52M101 42V42C100.68 41.3597 100.627 40.6185 100.854 39.9393L100.859 39.9222C100.952 39.6426 101.09 39.3798 101.267 39.1439L101.675 38.6002C102.202 37.8971 102.998 37.4377 103.87 37.3287V37.3287C105.393 37.1384 106.849 38.0482 107.335 39.5043V39.5043C107.444 39.8326 107.5 40.1764 107.5 40.5225V40.9289C107.5 42.255 106.973 43.5268 106.036 44.4645L100.811 49.6893C100.612 49.8883 100.5 50.158 100.5 50.4393V50.4393C100.5 51.0251 100.975 51.5 101.561 51.5H107.5H108" stroke="#007B79"/>
</svg>
