<?xml version="1.0" standalone="no"?>
<!DOCTYPE svg PUBLIC "-//W3C//DTD SVG 20010904//EN"
 "http://www.w3.org/TR/2001/REC-SVG-20010904/DTD/svg10.dtd">
<svg version="1.0" xmlns="http://www.w3.org/2000/svg"
 width="700.000000pt" height="700.000000pt" viewBox="0 0 700.000000 700.000000"
 preserveAspectRatio="xMidYMid meet">
<metadata>
Created by potrace 1.11, written by Peter Selinger 2001-2013
</metadata>
<g transform="translate(0.000000,700.000000) scale(0.100000,-0.100000)"
fill="#000000" stroke="none">
<path d="M3061 5831 l-80 -119 185 -123 c178 -118 185 -124 182 -153 l-3 -31
-1080 -5 -1080 -5 -58 -23 c-76 -31 -164 -113 -202 -189 -27 -53 -30 -67 -30
-158 0 -93 2 -105 32 -166 48 -97 96 -136 293 -234 95 -48 173 -85 175 -83 5
6 125 248 125 253 0 3 -72 41 -160 85 -87 44 -164 88 -170 99 -16 31 -12 66
11 95 l20 26 485 0 484 0 0 -1965 0 -1965 145 0 145 0 0 1965 0 1965 413 0
c443 0 501 5 580 48 182 98 227 350 91 512 -23 27 -403 290 -419 290 -2 0 -40
-53 -84 -119z"/>
<path d="M4595 5590 c-235 -37 -475 -159 -632 -321 -77 -81 -248 -313 -292
-399 -86 -167 -123 -358 -102 -534 12 -96 61 -269 85 -300 9 -12 30 -5 131 45
65 32 123 60 127 61 5 2 -2 33 -16 70 -62 164 -50 359 31 520 44 90 231 326
306 388 86 71 203 132 312 161 111 30 287 30 400 0 272 -72 480 -274 567 -551
21 -69 23 -93 23 -290 0 -170 -4 -233 -18 -300 -24 -112 -59 -215 -107 -314
-90 -188 -89 -186 -984 -1086 -887 -891 -878 -881 -911 -1005 -60 -232 76
-474 306 -546 58 -18 107 -19 1035 -19 l974 0 0 145 0 145 -967 2 -968 3 -34
24 c-47 34 -75 100 -66 160 6 45 19 58 829 871 491 492 845 856 879 901 170
230 268 464 313 746 24 154 16 496 -14 606 -114 416 -424 714 -836 803 -87 19
-289 26 -371 14z"/>
</g>
</svg>
